<svg width="44" height="36" viewBox="0 0 44 36" fill="none" xmlns="http://www.w3.org/2000/svg">
<path fill-rule="evenodd" clip-rule="evenodd" d="M0 34C0 33.4696 0.210714 32.9609 0.585787 32.5858C0.96086 32.2107 1.46957 32 2 32H42C42.5304 32 43.0391 32.2107 43.4142 32.5858C43.7893 32.9609 44 33.4696 44 34C44 34.5304 43.7893 35.0391 43.4142 35.4142C43.0391 35.7893 42.5304 36 42 36H2C1.46957 36 0.96086 35.7893 0.585787 35.4142C0.210714 35.0391 0 34.5304 0 34ZM0 18C0 17.4696 0.210714 16.9609 0.585787 16.5858C0.96086 16.2107 1.46957 16 2 16H42C42.5304 16 43.0391 16.2107 43.4142 16.5858C43.7893 16.9609 44 17.4696 44 18C44 18.5304 43.7893 19.0391 43.4142 19.4142C43.0391 19.7893 42.5304 20 42 20H2C1.46957 20 0.96086 19.7893 0.585787 19.4142C0.210714 19.0391 0 18.5304 0 18ZM0 2C0 1.46957 0.210714 0.96086 0.585787 0.585787C0.96086 0.210714 1.46957 0 2 0H42C42.5304 0 43.0391 0.210714 43.4142 0.585787C43.7893 0.96086 44 1.46957 44 2C44 2.53043 43.7893 3.03914 43.4142 3.41421C43.0391 3.78929 42.5304 4 42 4H2C1.46957 4 0.96086 3.78929 0.585787 3.41421C0.210714 3.03914 0 2.53043 0 2Z" fill="white"/>
</svg>
